# xmcd
#
# Track frame offsets:
#	150
#	23305
#	46296
#	61908
#	81997
#	97562
#	111989
#	136026
#	151897
#	178530
#	215960
#	235250
#	269226
#	287893
#	310837
#	322208
#
# Disc length: 4678 seconds
#
# Revision: 0
# Processed by: cddbd v1.5.2PL0 Copyright (c) Steve Scherf et al.
# Submitted via: EasyCDDAExtractor 16.0.6.1
#
DISCID=e0124410
DTITLE=Tom Petty and Bob Dylan - Live on Air
DYEAR=1986
DGENRE=Rock and Blues
TTITLE0=Justine
TTITLE1=Positively 4th Street
TTITLE2=Clean Cut Kid
TTITLE3=I'll Remember You
TTITLE4=Trust Yourself
TTITLE5=That Lucky Old Sun
TTITLE6=Masters of War
TTITLE7=Straight into Darkness
TTITLE8=Bye Bye Johnny
TTITLE9=A Hard Rain's A-gonna Fall
TTITLE10=Girl From the North Country
TTITLE11=It's Alright, Ma
TTITLE12=I Forgot More Than You'll Ever Know
TTITLE13=Just Like a Woman
TTITLE14=I'm Moving On
TTITLE15=Lenny Bruce
EXTD=
EXTT0=
EXTT1=
EXTT2=
EXTT3=
EXTT4=
EXTT5=
EXTT6=
EXTT7=
EXTT8=
EXTT9=
EXTT10=
EXTT11=
EXTT12=
EXTT13=
EXTT14=
EXTT15=
PLAYORDER=
